{"title":"Dragon.Blade.2015.BRRip.480p.x264.AAC-VYTO [P2PDL]","uid":12040810,"size":464017856,"categoryP":"video","categoryS":"movies","magnet":"?xt=urn:btih:1cd59bf3c4d9be78f58e7b77a55c0bad90a77335&amp;dn=Dragon.Blade.2015.BRRip.480p.x264.AAC-VYTO+%5BP2PDL%5D&amp;tr=udp%3A%2F%2Ftracker.openbittorrent.com%3A80&amp;tr=udp%3A%2F%2Fopen.demonii.com%3A1337&amp;tr=udp%3A%2F%2Ftracker.coppersurfer.tk%3A6969&amp;tr=udp%3A%2F%2Fexodus.desync.com%3A6969","seeders":5,"leechers":4,"uploader":"ValidusVyto","files":7,"time":1434782611,"description":"Dragon.Blade.2015.BRRip.480p.x264.AAC-VYTO\n\n\nGenre: Action, Adventure, Drama\nIMDb: http://www.imdb.com/title/tt3672840/\n\nFormat                         : MPEG-4\nFormat profile                 : Base Media\nFile size                      : 436 MiB\nOverall bit rate               : 480 Kbps\n\nVideo\nFormat                         : AVC\nBit rate                       : 437 Kbps\nWidth                          : 720 pixels\nHeight                         : 304 pixels\nDisplay aspect ratio           : 2.35:1\nFrame rate mode                : Constant\nFrame rate                     : 24.000 fps\nBit depth                      : 8 bits\nStream size                    : 397 MiB (91%)\nWriting library                : x264 core 146 r2538 121396c\n\nAudio\nFormat                         : AAC\nBit rate mode                  : Variable\nBit rate                       : 40.0 Kbps\nChannel(s)                     : 2 channels\nChannel positions              : Front: L R\nSampling rate                  : 48.0 KHz\nStream size                    : 36.4 MiB (8%)\nLanguage                       : Chinese\n\nSubtitle                    : Yes(English)\nSource                      : 720p.Bluray.x264.DTS-iFT\n &lt;a href=&quot;\nhttp://someimage.com/BTFN8JQ&quot; rel=&quot;nofollow&quot; target=&quot;_NEW&quot;&gt;\nhttp://someimage.com/BTFN8JQ&lt;/a&gt; &lt;a href=&quot;\nhttp://someimage.com/IPR00GS&quot; rel=&quot;nofollow&quot; target=&quot;_NEW&quot;&gt;\nhttp://someimage.com/IPR00GS&lt;/a&gt; &lt;a href=&quot;\nhttp://someimage.com/sUptOrY&quot; rel=&quot;nofollow&quot; target=&quot;_NEW&quot;&gt;\nhttp://someimage.com/sUptOrY&lt;/a&gt; &lt;a href=&quot;\nhttp://someimage.com/V8HxwFh&quot; rel=&quot;nofollow&quot; target=&quot;_NEW&quot;&gt;\nhttp://someimage.com/V8HxwFh&lt;/a&gt; &lt;a href=&quot;\nhttp://someimage.com/VQXf4Vz&quot; rel=&quot;nofollow&quot; target=&quot;_NEW&quot;&gt;\nhttp://someimage.com/VQXf4Vz&lt;/a&gt; &lt;a href=&quot;\nhttp://someimage.com/5fOlPuu&quot; rel=&quot;nofollow&quot; target=&quot;_NEW&quot;&gt;\nhttp://someimage.com/5fOlPuu&lt;/a&gt; &lt;a href=&quot;\nhttp://someimage.com/o3uaqOR&quot; rel=&quot;nofollow&quot; target=&quot;_NEW&quot;&gt;\nhttp://someimage.com/o3uaqOR&lt;/a&gt; &lt;a href=&quot;\nhttp://someimage.com/gMIOQMR&quot; rel=&quot;nofollow&quot; target=&quot;_NEW&quot;&gt;\nhttp://someimage.com/gMIOQMR&lt;/a&gt; &lt;a href=&quot;\nhttp://someimage.com/iEHzGfl&quot; rel=&quot;nofollow&quot; target=&quot;_NEW&quot;&gt;\nhttp://someimage.com/iEHzGfl&lt;/a&gt;\n\n----------------------------------------------------------------------------------------------------\n\n\nEncoder Notes: Looking For Early Access To Anything You Can Provide DVDScr, R5, DVDR, BluRay, Direct\nAudio, Music Releases and Seedboxes. If You Got anything to offer please contact us.\n\nWe require dedicated servers, so as to do more and fast releases of movies.\nSupport us by donating BC - 1FgwdzPsd1y25Gea8wP1qni35uGCtmkRCD","torrent":{"xt":"urn:btih:1cd59bf3c4d9be78f58e7b77a55c0bad90a77335","amp;dn":"Dragon.Blade.2015.BRRip.480p.x264.AAC-VYTO+%5BP2PDL%5D","amp;tr":["udp%3A%2F%2Ftracker.openbittorrent.com%3A80","udp%3A%2F%2Fopen.demonii.com%3A1337","udp%3A%2F%2Ftracker.coppersurfer.tk%3A6969","udp%3A%2F%2Fexodus.desync.com%3A6969"],"infoHash":"1cd59bf3c4d9be78f58e7b77a55c0bad90a77335","infoHashBuffer":{"type":"Buffer","data":[28,213,155,243,196,217,190,120,245,142,123,119,165,92,11,173,144,167,115,53]},"announce":[],"urlList":[]}}